<svg xmlns="http://www.w3.org/2000/svg" width="200" height="240" viewBox="0 0 200 240" role="img" aria-label="Tovenaar, hoed weer op"><title>Tovenaar, hoed weer op</title><g transform="translate(100,20)"><ellipse cx="0" cy="186" rx="44" ry="6" fill="#2A2540" opacity="0.13"/><path d="M-18,104 Q-50,132 -56,166 Q-30,174 0,168 Q30,174 56,166 Q50,132 18,104 Z" fill="#5B4B9E" stroke="#453A7E" stroke-width="2" stroke-linejoin="round"/><path d="M-18,104 Q-44,134 -49,167 Q-38,172 -28,170 Q-22,134 -18,104 Z" fill="#7263B8"/><path d="M-14,152 L-16,178 L-5,178 L-5,152 Z" fill="#2A2540"/><path d="M14,152 L16,178 L5,178 L5,152 Z" fill="#2A2540"/><ellipse cx="-14" cy="179" rx="11" ry="5.5" fill="#1C1830"/><ellipse cx="14" cy="179" rx="11" ry="5.5" fill="#1C1830"/><path d="M-17,105 Q0,99 17,105 L21,158 Q0,163 -21,158 Z" fill="#2A2540" stroke="#1C1830" stroke-width="1.5" stroke-linejoin="round"/><path d="M-8,104 L-9,150 Q0,153 9,150 L8,104 Z" fill="#F7F3EA"/><path d="M-8,104 L-2,122 L-9,142 Q-14,120 -8,104 Z" fill="#1C1830"/><path d="M8,104 L2,122 L9,142 Q14,120 8,104 Z" fill="#1C1830"/><path d="M0,110 L-11,104 L-11,117 Z" fill="#5fae88"/><path d="M0,110 L11,104 L11,117 Z" fill="#5fae88"/><circle cx="0" cy="110" r="2.6" fill="#3f7d61"/><circle cx="0" cy="132" r="2" fill="#F4C542"/><circle cx="0" cy="143" r="2" fill="#F4C542"/><path d="M-16,110 Q-26,122 -26,136" fill="none" stroke="#1C1830" stroke-width="15" stroke-linecap="round"/><path d="M-16,110 Q-26,122 -26,136" fill="none" stroke="#2A2540" stroke-width="11" stroke-linecap="round"/><circle cx="-27" cy="138" r="7.5" fill="#F7F3EA" stroke="#1C1830" stroke-width="1.2"/><rect x="-6" y="93" width="12" height="10" fill="#E8B287"/><ellipse cx="-22" cy="76" rx="5" ry="7" fill="#E8B287" stroke="#C98F63" stroke-width="1"/><ellipse cx="22" cy="76" rx="5" ry="7" fill="#E8B287" stroke="#C98F63" stroke-width="1"/><ellipse cx="0" cy="74" rx="22" ry="23" fill="#F2C79E" stroke="#C98F63" stroke-width="1.5"/><ellipse cx="0" cy="63" rx="21" ry="11" fill="#E3B189"/><path d="M-17,60 Q-10,53 -3,59" fill="none" stroke="#3B3550" stroke-width="3" stroke-linecap="round"/><path d="M3,59 Q10,53 17,60" fill="none" stroke="#3B3550" stroke-width="3" stroke-linecap="round"/><ellipse cx="-8" cy="69" rx="5" ry="5.5" fill="#F7F3EA" stroke="#3B3550" stroke-width="1"/><ellipse cx="8" cy="69" rx="5" ry="5.5" fill="#F7F3EA" stroke="#3B3550" stroke-width="1"/><circle cx="-7" cy="69" r="2.6" fill="#2A2540"/><circle cx="9" cy="69" r="2.6" fill="#2A2540"/><circle cx="-8.6" cy="67" r="1.2" fill="#FFFFFF"/><circle cx="7.4" cy="67" r="1.2" fill="#FFFFFF"/><ellipse cx="1" cy="79" rx="4.5" ry="3.6" fill="#EBB489"/><ellipse cx="-15" cy="85" rx="5" ry="3.4" fill="#E89A85"/><ellipse cx="15" cy="85" rx="5" ry="3.4" fill="#E89A85"/><path d="M0,89 Q-8,83 -17,85 Q-24,87 -22,93 Q-20,97 -16,94 Q-19,90 -14,89 Q-6,88 0,92 Q6,88 14,89 Q19,90 16,94 Q20,97 22,93 Q24,87 17,85 Q8,83 0,89 Z" fill="#3B3550"/><path d="M-6,96 Q0,112 6,96 Q0,100 -6,96 Z" fill="#3B3550"/><g transform="translate(2,-6) rotate(5 0 50)"><path d="M-24,6 Q0,-1 24,6 L29,48 Q0,42 -29,48 Z" fill="#2A2540" stroke="#1C1830" stroke-width="1.5" stroke-linejoin="round"/><path d="M-27.5,34 Q0,28 27.5,34 L29,48 Q0,42 -29,48 Z" fill="#5fae88"/><rect x="-6" y="33" width="12" height="10" rx="1.5" fill="#F4C542"/><ellipse cx="0" cy="50" rx="48" ry="9" fill="#2A2540" stroke="#1C1830" stroke-width="1.5"/><path d="M-38,45 Q0,38 38,45" fill="none" stroke="#3D3557" stroke-width="2" stroke-linecap="round"/></g><path d="M16,104 Q30,86 24,66" fill="none" stroke="#1C1830" stroke-width="15" stroke-linecap="round"/><path d="M16,104 Q30,86 24,66" fill="none" stroke="#2A2540" stroke-width="11" stroke-linecap="round"/><circle cx="20" cy="60" r="8" fill="#F7F3EA" stroke="#1C1830" stroke-width="1.2"/></g></svg>